<?xml version="1.0" encoding="UTF-8" standalone="no"?>
<!DOCTYPE svg PUBLIC "-//W3C//DTD SVG 1.1//EN"
 "http://www.w3.org/Graphics/SVG/1.1/DTD/svg11.dtd">
<!-- Generated by graphviz version 2.26.3 (20100126.1600)
 -->
<!-- Title: controllers_diagram Pages: 1 -->
<svg width="1364pt" height="1540pt"
 viewBox="0.00 0.00 1364.00 1540.02" xmlns="http://www.w3.org/2000/svg" xmlns:xlink="http://www.w3.org/1999/xlink">
<g id="graph1" class="graph" transform="scale(1 1) rotate(0) translate(4 1536.02)">
<title>controllers_diagram</title>
<polygon fill="white" stroke="white" points="-4,5 -4,-1536.02 1361,-1536.02 1361,5 -4,5"/>
<!-- _diagram_info -->
<g id="node1" class="node"><title>_diagram_info</title>
<text text-anchor="start" x="1113" y="-285.3" font-family="Times Roman,serif" font-size="13.00">Controllers diagram</text>
<text text-anchor="start" x="1113" y="-268.3" font-family="Times Roman,serif" font-size="13.00">Date: Jun 06 2014 &#45; 16:29</text>
<text text-anchor="start" x="1113" y="-251.3" font-family="Times Roman,serif" font-size="13.00">Migration version: 20140601230316</text>
<text text-anchor="start" x="1113" y="-234.3" font-family="Times Roman,serif" font-size="13.00">Generated by RailRoady 1.1.1</text>
<text text-anchor="start" x="1113" y="-217.3" font-family="Times Roman,serif" font-size="13.00">http://railroady.prestonlee.com</text>
</g>
<!-- ApplicationController -->
<g id="node2" class="node"><title>ApplicationController</title>
<polyline fill="none" stroke="black" points="423.302,-896.051 560.302,-896.051 "/>
<path fill="none" stroke="black" d="M560.302,-896.051C566.302,-896.051 572.302,-902.051 572.302,-908.051"/>
<polyline fill="none" stroke="black" points="572.302,-908.051 572.302,-1004.05 "/>
<path fill="none" stroke="black" d="M572.302,-1004.05C572.302,-1010.05 566.302,-1016.05 560.302,-1016.05"/>
<polyline fill="none" stroke="black" points="560.302,-1016.05 423.302,-1016.05 "/>
<path fill="none" stroke="black" d="M423.302,-1016.05C417.302,-1016.05 411.302,-1010.05 411.302,-1004.05"/>
<polyline fill="none" stroke="black" points="411.302,-1004.05 411.302,-908.051 "/>
<path fill="none" stroke="black" d="M411.302,-908.051C411.302,-902.051 417.302,-896.051 423.302,-896.051"/>
<text text-anchor="middle" x="491.802" y="-999.451" font-family="Times Roman,serif" font-size="14.00">ApplicationController</text>
<polyline fill="none" stroke="black" points="411.302,-990.051 572.302,-990.051 "/>
<text text-anchor="start" x="419.302" y="-973.451" font-family="Times Roman,serif" font-size="14.00">can_destroy_opinio?</text>
<text text-anchor="start" x="419.302" y="-955.451" font-family="Times Roman,serif" font-size="14.00">set_current_user</text>
<polyline fill="none" stroke="black" points="411.302,-946.051 572.302,-946.051 "/>
<polyline fill="none" stroke="black" points="411.302,-922.051 572.302,-922.051 "/>
<text text-anchor="start" x="419.302" y="-905.451" font-family="Times Roman,serif" font-size="14.00">_layout</text>
</g>
<!-- ConversationsController -->
<g id="node3" class="node"><title>ConversationsController</title>
<polyline fill="none" stroke="black" points="819.805,-856.65 979.805,-856.65 "/>
<path fill="none" stroke="black" d="M979.805,-856.65C985.805,-856.65 991.805,-862.65 991.805,-868.65"/>
<polyline fill="none" stroke="black" points="991.805,-868.65 991.805,-1018.65 "/>
<path fill="none" stroke="black" d="M991.805,-1018.65C991.805,-1024.65 985.805,-1030.65 979.805,-1030.65"/>
<polyline fill="none" stroke="black" points="979.805,-1030.65 819.805,-1030.65 "/>
<path fill="none" stroke="black" d="M819.805,-1030.65C813.805,-1030.65 807.805,-1024.65 807.805,-1018.65"/>
<polyline fill="none" stroke="black" points="807.805,-1018.65 807.805,-868.65 "/>
<path fill="none" stroke="black" d="M807.805,-868.65C807.805,-862.65 813.805,-856.65 819.805,-856.65"/>
<text text-anchor="middle" x="899.805" y="-1014.05" font-family="Times Roman,serif" font-size="14.00">ConversationsController</text>
<polyline fill="none" stroke="black" points="807.805,-1004.65 991.805,-1004.65 "/>
<text text-anchor="start" x="815.805" y="-988.05" font-family="Times Roman,serif" font-size="14.00">create</text>
<text text-anchor="start" x="815.805" y="-970.05" font-family="Times Roman,serif" font-size="14.00">destroy</text>
<text text-anchor="start" x="815.805" y="-952.05" font-family="Times Roman,serif" font-size="14.00">index</text>
<polyline fill="none" stroke="black" points="807.805,-942.65 991.805,-942.65 "/>
<polyline fill="none" stroke="black" points="807.805,-918.65 991.805,-918.65 "/>
<text text-anchor="start" x="815.805" y="-902.05" font-family="Times Roman,serif" font-size="14.00">_layout</text>
<text text-anchor="start" x="815.805" y="-884.05" font-family="Times Roman,serif" font-size="14.00">conversation_params</text>
<text text-anchor="start" x="815.805" y="-866.05" font-family="Times Roman,serif" font-size="14.00">handle_errors</text>
</g>
<!-- ApplicationController&#45;&gt;ConversationsController -->
<g id="edge2" class="edge"><title>ApplicationController&#45;&gt;ConversationsController</title>
<path fill="none" stroke="black" d="M572.41,-953.601C640.107,-951.544 736.842,-948.603 807.607,-946.453"/>
</g>
<!-- HomeController -->
<g id="node4" class="node"><title>HomeController</title>
<polyline fill="none" stroke="black" points="348.809,-538.522 449.809,-538.522 "/>
<path fill="none" stroke="black" d="M449.809,-538.522C455.809,-538.522 461.809,-544.522 461.809,-550.522"/>
<polyline fill="none" stroke="black" points="461.809,-550.522 461.809,-628.522 "/>
<path fill="none" stroke="black" d="M461.809,-628.522C461.809,-634.522 455.809,-640.522 449.809,-640.522"/>
<polyline fill="none" stroke="black" points="449.809,-640.522 348.809,-640.522 "/>
<path fill="none" stroke="black" d="M348.809,-640.522C342.809,-640.522 336.809,-634.522 336.809,-628.522"/>
<polyline fill="none" stroke="black" points="336.809,-628.522 336.809,-550.522 "/>
<path fill="none" stroke="black" d="M336.809,-550.522C336.809,-544.522 342.809,-538.522 348.809,-538.522"/>
<text text-anchor="middle" x="399.309" y="-623.922" font-family="Times Roman,serif" font-size="14.00">HomeController</text>
<polyline fill="none" stroke="black" points="336.809,-614.522 461.809,-614.522 "/>
<text text-anchor="start" x="344.809" y="-597.922" font-family="Times Roman,serif" font-size="14.00">index</text>
<polyline fill="none" stroke="black" points="336.809,-588.522 461.809,-588.522 "/>
<polyline fill="none" stroke="black" points="336.809,-564.522 461.809,-564.522 "/>
<text text-anchor="start" x="344.809" y="-547.922" font-family="Times Roman,serif" font-size="14.00">_layout</text>
</g>
<!-- ApplicationController&#45;&gt;HomeController -->
<g id="edge4" class="edge"><title>ApplicationController&#45;&gt;HomeController</title>
<path fill="none" stroke="black" d="M476.632,-895.937C458.695,-824.855 429.148,-707.768 412.246,-640.79"/>
</g>
<!-- NewsPostsController -->
<g id="node5" class="node"><title>NewsPostsController</title>
<polyline fill="none" stroke="black" points="13,-1248.52 149,-1248.52 "/>
<path fill="none" stroke="black" d="M149,-1248.52C155,-1248.52 161,-1254.52 161,-1260.52"/>
<polyline fill="none" stroke="black" points="161,-1260.52 161,-1518.52 "/>
<path fill="none" stroke="black" d="M161,-1518.52C161,-1524.52 155,-1530.52 149,-1530.52"/>
<polyline fill="none" stroke="black" points="149,-1530.52 13,-1530.52 "/>
<path fill="none" stroke="black" d="M13,-1530.52C7,-1530.52 1,-1524.52 1,-1518.52"/>
<polyline fill="none" stroke="black" points="1,-1518.52 1,-1260.52 "/>
<path fill="none" stroke="black" d="M1,-1260.52C1,-1254.52 7,-1248.52 13,-1248.52"/>
<text text-anchor="middle" x="81" y="-1513.92" font-family="Times Roman,serif" font-size="14.00">NewsPostsController</text>
<polyline fill="none" stroke="black" points="1,-1504.52 161,-1504.52 "/>
<text text-anchor="start" x="9" y="-1487.92" font-family="Times Roman,serif" font-size="14.00">_callback_before_25</text>
<text text-anchor="start" x="9" y="-1469.92" font-family="Times Roman,serif" font-size="14.00">create</text>
<text text-anchor="start" x="9" y="-1451.92" font-family="Times Roman,serif" font-size="14.00">destroy</text>
<text text-anchor="start" x="9" y="-1433.92" font-family="Times Roman,serif" font-size="14.00">edit</text>
<text text-anchor="start" x="9" y="-1415.92" font-family="Times Roman,serif" font-size="14.00">icon</text>
<text text-anchor="start" x="9" y="-1397.92" font-family="Times Roman,serif" font-size="14.00">index</text>
<text text-anchor="start" x="9" y="-1379.92" font-family="Times Roman,serif" font-size="14.00">new</text>
<text text-anchor="start" x="9" y="-1361.92" font-family="Times Roman,serif" font-size="14.00">show</text>
<text text-anchor="start" x="9" y="-1343.92" font-family="Times Roman,serif" font-size="14.00">update</text>
<polyline fill="none" stroke="black" points="1,-1334.52 161,-1334.52 "/>
<polyline fill="none" stroke="black" points="1,-1310.52 161,-1310.52 "/>
<text text-anchor="start" x="9" y="-1293.92" font-family="Times Roman,serif" font-size="14.00">_layout</text>
<text text-anchor="start" x="9" y="-1275.92" font-family="Times Roman,serif" font-size="14.00">news_post_params</text>
<text text-anchor="start" x="9" y="-1257.92" font-family="Times Roman,serif" font-size="14.00">set_news_post</text>
</g>
<!-- ApplicationController&#45;&gt;NewsPostsController -->
<g id="edge6" class="edge"><title>ApplicationController&#45;&gt;NewsPostsController</title>
<path fill="none" stroke="black" d="M434.682,-1016.32C363.582,-1091.34 241.727,-1219.92 161.266,-1304.82"/>
</g>
<!-- MessagesController -->
<g id="node6" class="node"><title>MessagesController</title>
<polyline fill="none" stroke="black" points="586.325,-1238.46 713.325,-1238.46 "/>
<path fill="none" stroke="black" d="M713.325,-1238.46C719.325,-1238.46 725.325,-1244.46 725.325,-1250.46"/>
<polyline fill="none" stroke="black" points="725.325,-1250.46 725.325,-1382.46 "/>
<path fill="none" stroke="black" d="M725.325,-1382.46C725.325,-1388.46 719.325,-1394.46 713.325,-1394.46"/>
<polyline fill="none" stroke="black" points="713.325,-1394.46 586.325,-1394.46 "/>
<path fill="none" stroke="black" d="M586.325,-1394.46C580.325,-1394.46 574.325,-1388.46 574.325,-1382.46"/>
<polyline fill="none" stroke="black" points="574.325,-1382.46 574.325,-1250.46 "/>
<path fill="none" stroke="black" d="M574.325,-1250.46C574.325,-1244.46 580.325,-1238.46 586.325,-1238.46"/>
<text text-anchor="middle" x="649.825" y="-1377.86" font-family="Times Roman,serif" font-size="14.00">MessagesController</text>
<polyline fill="none" stroke="black" points="574.325,-1368.46 725.325,-1368.46 "/>
<text text-anchor="start" x="582.325" y="-1351.86" font-family="Times Roman,serif" font-size="14.00">create</text>
<text text-anchor="start" x="582.325" y="-1333.86" font-family="Times Roman,serif" font-size="14.00">index</text>
<polyline fill="none" stroke="black" points="574.325,-1324.46 725.325,-1324.46 "/>
<polyline fill="none" stroke="black" points="574.325,-1300.46 725.325,-1300.46 "/>
<text text-anchor="start" x="582.325" y="-1283.86" font-family="Times Roman,serif" font-size="14.00">_layout</text>
<text text-anchor="start" x="582.325" y="-1265.86" font-family="Times Roman,serif" font-size="14.00">load_conversation</text>
<text text-anchor="start" x="582.325" y="-1247.86" font-family="Times Roman,serif" font-size="14.00">message_params</text>
</g>
<!-- ApplicationController&#45;&gt;MessagesController -->
<g id="edge8" class="edge"><title>ApplicationController&#45;&gt;MessagesController</title>
<path fill="none" stroke="black" d="M518.251,-1016.37C544.961,-1077.29 586.338,-1171.66 615.549,-1238.28"/>
</g>
<!-- UsersController -->
<g id="node7" class="node"><title>UsersController</title>
<polyline fill="none" stroke="black" points="74.1545,-938.982 174.154,-938.982 "/>
<path fill="none" stroke="black" d="M174.154,-938.982C180.154,-938.982 186.154,-944.982 186.154,-950.982"/>
<polyline fill="none" stroke="black" points="186.154,-950.982 186.154,-1136.98 "/>
<path fill="none" stroke="black" d="M186.154,-1136.98C186.154,-1142.98 180.154,-1148.98 174.154,-1148.98"/>
<polyline fill="none" stroke="black" points="174.154,-1148.98 74.1545,-1148.98 "/>
<path fill="none" stroke="black" d="M74.1545,-1148.98C68.1545,-1148.98 62.1545,-1142.98 62.1545,-1136.98"/>
<polyline fill="none" stroke="black" points="62.1545,-1136.98 62.1545,-950.982 "/>
<path fill="none" stroke="black" d="M62.1545,-950.982C62.1545,-944.982 68.1545,-938.982 74.1545,-938.982"/>
<text text-anchor="middle" x="124.154" y="-1132.38" font-family="Times Roman,serif" font-size="14.00">UsersController</text>
<polyline fill="none" stroke="black" points="62.1545,-1122.98 186.154,-1122.98 "/>
<text text-anchor="start" x="70.1545" y="-1106.38" font-family="Times Roman,serif" font-size="14.00">avatar</text>
<text text-anchor="start" x="70.1545" y="-1088.38" font-family="Times Roman,serif" font-size="14.00">edit_current</text>
<text text-anchor="start" x="70.1545" y="-1070.38" font-family="Times Roman,serif" font-size="14.00">set_user</text>
<text text-anchor="start" x="70.1545" y="-1052.38" font-family="Times Roman,serif" font-size="14.00">show</text>
<text text-anchor="start" x="70.1545" y="-1034.38" font-family="Times Roman,serif" font-size="14.00">dashboard</text>
<text text-anchor="start" x="70.1545" y="-1016.38" font-family="Times Roman,serif" font-size="14.00">update_current</text>
<polyline fill="none" stroke="black" points="62.1545,-1006.98 186.154,-1006.98 "/>
<polyline fill="none" stroke="black" points="62.1545,-982.982 186.154,-982.982 "/>
<text text-anchor="start" x="70.1545" y="-966.382" font-family="Times Roman,serif" font-size="14.00">_layout</text>
<text text-anchor="start" x="70.1545" y="-948.382" font-family="Times Roman,serif" font-size="14.00">user_params</text>
</g>
<!-- ApplicationController&#45;&gt;UsersController -->
<g id="edge10" class="edge"><title>ApplicationController&#45;&gt;UsersController</title>
<path fill="none" stroke="black" d="M411.12,-975.348C343.481,-991.526 248.295,-1014.29 186.417,-1029.09"/>
</g>
<!-- CalendarController -->
<g id="node8" class="node"><title>CalendarController</title>
<polyline fill="none" stroke="black" points="41.1454,-726.273 164.145,-726.273 "/>
<path fill="none" stroke="black" d="M164.145,-726.273C170.145,-726.273 176.145,-732.273 176.145,-738.273"/>
<polyline fill="none" stroke="black" points="176.145,-738.273 176.145,-816.273 "/>
<path fill="none" stroke="black" d="M176.145,-816.273C176.145,-822.273 170.145,-828.273 164.145,-828.273"/>
<polyline fill="none" stroke="black" points="164.145,-828.273 41.1454,-828.273 "/>
<path fill="none" stroke="black" d="M41.1454,-828.273C35.1454,-828.273 29.1454,-822.273 29.1454,-816.273"/>
<polyline fill="none" stroke="black" points="29.1454,-816.273 29.1454,-738.273 "/>
<path fill="none" stroke="black" d="M29.1454,-738.273C29.1454,-732.273 35.1454,-726.273 41.1454,-726.273"/>
<text text-anchor="middle" x="102.645" y="-811.673" font-family="Times Roman,serif" font-size="14.00">CalendarController</text>
<polyline fill="none" stroke="black" points="29.1454,-802.273 176.145,-802.273 "/>
<text text-anchor="start" x="37.1454" y="-785.673" font-family="Times Roman,serif" font-size="14.00">calendar</text>
<polyline fill="none" stroke="black" points="29.1454,-776.273 176.145,-776.273 "/>
<polyline fill="none" stroke="black" points="29.1454,-752.273 176.145,-752.273 "/>
<text text-anchor="start" x="37.1454" y="-735.673" font-family="Times Roman,serif" font-size="14.00">_layout</text>
</g>
<!-- ApplicationController&#45;&gt;CalendarController -->
<g id="edge12" class="edge"><title>ApplicationController&#45;&gt;CalendarController</title>
<path fill="none" stroke="black" d="M411.168,-919.008C342.042,-887.252 243.291,-841.886 176.27,-811.096"/>
</g>
<!-- TasksController -->
<g id="node9" class="node"><title>TasksController</title>
<polyline fill="none" stroke="black" points="579.474,-476.687 719.474,-476.687 "/>
<path fill="none" stroke="black" d="M719.474,-476.687C725.474,-476.687 731.474,-482.687 731.474,-488.687"/>
<polyline fill="none" stroke="black" points="731.474,-488.687 731.474,-818.687 "/>
<path fill="none" stroke="black" d="M731.474,-818.687C731.474,-824.687 725.474,-830.687 719.474,-830.687"/>
<polyline fill="none" stroke="black" points="719.474,-830.687 579.474,-830.687 "/>
<path fill="none" stroke="black" d="M579.474,-830.687C573.474,-830.687 567.474,-824.687 567.474,-818.687"/>
<polyline fill="none" stroke="black" points="567.474,-818.687 567.474,-488.687 "/>
<path fill="none" stroke="black" d="M567.474,-488.687C567.474,-482.687 573.474,-476.687 579.474,-476.687"/>
<text text-anchor="middle" x="649.474" y="-814.087" font-family="Times Roman,serif" font-size="14.00">TasksController</text>
<polyline fill="none" stroke="black" points="567.474,-804.687 731.474,-804.687 "/>
<text text-anchor="start" x="575.474" y="-788.087" font-family="Times Roman,serif" font-size="14.00">_callback_before_26</text>
<text text-anchor="start" x="575.474" y="-770.087" font-family="Times Roman,serif" font-size="14.00">create</text>
<text text-anchor="start" x="575.474" y="-752.087" font-family="Times Roman,serif" font-size="14.00">destroy</text>
<text text-anchor="start" x="575.474" y="-734.087" font-family="Times Roman,serif" font-size="14.00">edit</text>
<text text-anchor="start" x="575.474" y="-716.087" font-family="Times Roman,serif" font-size="14.00">index</text>
<text text-anchor="start" x="575.474" y="-698.087" font-family="Times Roman,serif" font-size="14.00">new</text>
<text text-anchor="start" x="575.474" y="-680.087" font-family="Times Roman,serif" font-size="14.00">show</text>
<text text-anchor="start" x="575.474" y="-662.087" font-family="Times Roman,serif" font-size="14.00">update</text>
<polyline fill="none" stroke="black" points="567.474,-652.687 731.474,-652.687 "/>
<polyline fill="none" stroke="black" points="567.474,-628.687 731.474,-628.687 "/>
<text text-anchor="start" x="575.474" y="-612.087" font-family="Times Roman,serif" font-size="14.00">_layout</text>
<text text-anchor="start" x="575.474" y="-594.087" font-family="Times Roman,serif" font-size="14.00">create_activity</text>
<text text-anchor="start" x="575.474" y="-576.087" font-family="Times Roman,serif" font-size="14.00">fix_params</text>
<text text-anchor="start" x="575.474" y="-558.087" font-family="Times Roman,serif" font-size="14.00">local_time_convert</text>
<text text-anchor="start" x="575.474" y="-540.087" font-family="Times Roman,serif" font-size="14.00">local_time_format</text>
<text text-anchor="start" x="575.474" y="-522.087" font-family="Times Roman,serif" font-size="14.00">task_params</text>
<text text-anchor="start" x="575.474" y="-504.087" font-family="Times Roman,serif" font-size="14.00">track_specific_fields</text>
<text text-anchor="start" x="575.474" y="-486.087" font-family="Times Roman,serif" font-size="14.00">validate_date_strings</text>
</g>
<!-- ApplicationController&#45;&gt;TasksController -->
<g id="edge14" class="edge"><title>ApplicationController&#45;&gt;TasksController</title>
<path fill="none" stroke="black" d="M523.141,-895.952C536.029,-871.238 551.616,-841.347 567.378,-811.122"/>
</g>
<!-- EventsController -->
<g id="node11" class="node"><title>EventsController</title>
<polyline fill="none" stroke="black" points="26.25,-324.267 148.25,-324.267 "/>
<path fill="none" stroke="black" d="M148.25,-324.267C154.25,-324.267 160.25,-330.267 160.25,-336.267"/>
<polyline fill="none" stroke="black" points="160.25,-336.267 160.25,-630.267 "/>
<path fill="none" stroke="black" d="M160.25,-630.267C160.25,-636.267 154.25,-642.267 148.25,-642.267"/>
<polyline fill="none" stroke="black" points="148.25,-642.267 26.25,-642.267 "/>
<path fill="none" stroke="black" d="M26.25,-642.267C20.25,-642.267 14.25,-636.267 14.25,-630.267"/>
<polyline fill="none" stroke="black" points="14.25,-630.267 14.25,-336.267 "/>
<path fill="none" stroke="black" d="M14.25,-336.267C14.25,-330.267 20.25,-324.267 26.25,-324.267"/>
<text text-anchor="middle" x="87.25" y="-625.667" font-family="Times Roman,serif" font-size="14.00">EventsController</text>
<polyline fill="none" stroke="black" points="14.25,-616.267 160.25,-616.267 "/>
<text text-anchor="start" x="22.25" y="-599.667" font-family="Times Roman,serif" font-size="14.00">create</text>
<text text-anchor="start" x="22.25" y="-581.667" font-family="Times Roman,serif" font-size="14.00">destroy</text>
<text text-anchor="start" x="22.25" y="-563.667" font-family="Times Roman,serif" font-size="14.00">edit</text>
<text text-anchor="start" x="22.25" y="-545.667" font-family="Times Roman,serif" font-size="14.00">index</text>
<text text-anchor="start" x="22.25" y="-527.667" font-family="Times Roman,serif" font-size="14.00">new</text>
<text text-anchor="start" x="22.25" y="-509.667" font-family="Times Roman,serif" font-size="14.00">show</text>
<text text-anchor="start" x="22.25" y="-491.667" font-family="Times Roman,serif" font-size="14.00">update</text>
<polyline fill="none" stroke="black" points="14.25,-482.267 160.25,-482.267 "/>
<polyline fill="none" stroke="black" points="14.25,-458.267 160.25,-458.267 "/>
<text text-anchor="start" x="22.25" y="-441.667" font-family="Times Roman,serif" font-size="14.00">_layout</text>
<text text-anchor="start" x="22.25" y="-423.667" font-family="Times Roman,serif" font-size="14.00">date_range_check</text>
<text text-anchor="start" x="22.25" y="-405.667" font-family="Times Roman,serif" font-size="14.00">event_params</text>
<text text-anchor="start" x="22.25" y="-387.667" font-family="Times Roman,serif" font-size="14.00">fix_params</text>
<text text-anchor="start" x="22.25" y="-369.667" font-family="Times Roman,serif" font-size="14.00">guests_check</text>
<text text-anchor="start" x="22.25" y="-351.667" font-family="Times Roman,serif" font-size="14.00">local_time_convert</text>
<text text-anchor="start" x="22.25" y="-333.667" font-family="Times Roman,serif" font-size="14.00">local_time_format</text>
</g>
<!-- ApplicationController&#45;&gt;EventsController -->
<g id="edge16" class="edge"><title>ApplicationController&#45;&gt;EventsController</title>
<path fill="none" stroke="black" d="M440.154,-895.693C369.221,-812.796 241.275,-663.27 160.483,-568.851"/>
</g>
<!-- Admin::AdminController -->
<g id="node14" class="node"><title>Admin::AdminController</title>
<polyline fill="none" stroke="black" points="441.928,-154.508 599.928,-154.508 "/>
<path fill="none" stroke="black" d="M599.928,-154.508C605.928,-154.508 611.928,-160.508 611.928,-166.508"/>
<polyline fill="none" stroke="black" points="611.928,-166.508 611.928,-242.508 "/>
<path fill="none" stroke="black" d="M611.928,-242.508C611.928,-248.508 605.928,-254.508 599.928,-254.508"/>
<polyline fill="none" stroke="black" points="599.928,-254.508 441.928,-254.508 "/>
<path fill="none" stroke="black" d="M441.928,-254.508C435.928,-254.508 429.928,-248.508 429.928,-242.508"/>
<polyline fill="none" stroke="black" points="429.928,-242.508 429.928,-166.508 "/>
<path fill="none" stroke="black" d="M429.928,-166.508C429.928,-160.508 435.928,-154.508 441.928,-154.508"/>
<text text-anchor="middle" x="520.928" y="-237.908" font-family="Times Roman,serif" font-size="14.00">Admin::AdminController</text>
<polyline fill="none" stroke="black" points="429.928,-228.508 611.928,-228.508 "/>
<polyline fill="none" stroke="black" points="429.928,-204.508 611.928,-204.508 "/>
<polyline fill="none" stroke="black" points="429.928,-180.508 611.928,-180.508 "/>
<text text-anchor="start" x="437.928" y="-163.908" font-family="Times Roman,serif" font-size="14.00">_layout</text>
</g>
<!-- ApplicationController&#45;&gt;Admin::AdminController -->
<g id="edge20" class="edge"><title>ApplicationController&#45;&gt;Admin::AdminController</title>
<path fill="none" stroke="black" d="M494.136,-895.82C499.725,-751.617 513.793,-388.621 518.974,-254.945"/>
</g>
<!-- DocumentsController -->
<g id="node17" class="node"><title>DocumentsController</title>
<polyline fill="none" stroke="black" points="863.125,-1244.12 1003.12,-1244.12 "/>
<path fill="none" stroke="black" d="M1003.12,-1244.12C1009.12,-1244.12 1015.12,-1250.12 1015.12,-1256.12"/>
<polyline fill="none" stroke="black" points="1015.12,-1256.12 1015.12,-1478.12 "/>
<path fill="none" stroke="black" d="M1015.12,-1478.12C1015.12,-1484.12 1009.12,-1490.12 1003.12,-1490.12"/>
<polyline fill="none" stroke="black" points="1003.12,-1490.12 863.125,-1490.12 "/>
<path fill="none" stroke="black" d="M863.125,-1490.12C857.125,-1490.12 851.125,-1484.12 851.125,-1478.12"/>
<polyline fill="none" stroke="black" points="851.125,-1478.12 851.125,-1256.12 "/>
<path fill="none" stroke="black" d="M851.125,-1256.12C851.125,-1250.12 857.125,-1244.12 863.125,-1244.12"/>
<text text-anchor="middle" x="933.125" y="-1473.52" font-family="Times Roman,serif" font-size="14.00">DocumentsController</text>
<polyline fill="none" stroke="black" points="851.125,-1464.12 1015.12,-1464.12 "/>
<text text-anchor="start" x="859.125" y="-1447.52" font-family="Times Roman,serif" font-size="14.00">create_document</text>
<text text-anchor="start" x="859.125" y="-1429.52" font-family="Times Roman,serif" font-size="14.00">delete</text>
<text text-anchor="start" x="859.125" y="-1411.52" font-family="Times Roman,serif" font-size="14.00">index</text>
<text text-anchor="start" x="859.125" y="-1393.52" font-family="Times Roman,serif" font-size="14.00">jstree</text>
<text text-anchor="start" x="859.125" y="-1375.52" font-family="Times Roman,serif" font-size="14.00">new</text>
<text text-anchor="start" x="859.125" y="-1357.52" font-family="Times Roman,serif" font-size="14.00">save_file</text>
<text text-anchor="start" x="859.125" y="-1339.52" font-family="Times Roman,serif" font-size="14.00">shared</text>
<text text-anchor="start" x="859.125" y="-1321.52" font-family="Times Roman,serif" font-size="14.00">update</text>
<text text-anchor="start" x="859.125" y="-1303.52" font-family="Times Roman,serif" font-size="14.00">update_lists</text>
<polyline fill="none" stroke="black" points="851.125,-1294.12 1015.12,-1294.12 "/>
<polyline fill="none" stroke="black" points="851.125,-1270.12 1015.12,-1270.12 "/>
<text text-anchor="start" x="859.125" y="-1253.52" font-family="Times Roman,serif" font-size="14.00">_layout</text>
</g>
<!-- ApplicationController&#45;&gt;DocumentsController -->
<g id="edge26" class="edge"><title>ApplicationController&#45;&gt;DocumentsController</title>
<path fill="none" stroke="black" d="M556.447,-1016.26C634.497,-1088.96 765.864,-1211.33 851.011,-1290.64"/>
</g>
<!-- ContactsController -->
<g id="node18" class="node"><title>ContactsController</title>
<polyline fill="none" stroke="black" points="342.574,-1312.2 464.574,-1312.2 "/>
<path fill="none" stroke="black" d="M464.574,-1312.2C470.574,-1312.2 476.574,-1318.2 476.574,-1324.2"/>
<polyline fill="none" stroke="black" points="476.574,-1324.2 476.574,-1438.2 "/>
<path fill="none" stroke="black" d="M476.574,-1438.2C476.574,-1444.2 470.574,-1450.2 464.574,-1450.2"/>
<polyline fill="none" stroke="black" points="464.574,-1450.2 342.574,-1450.2 "/>
<path fill="none" stroke="black" d="M342.574,-1450.2C336.574,-1450.2 330.574,-1444.2 330.574,-1438.2"/>
<polyline fill="none" stroke="black" points="330.574,-1438.2 330.574,-1324.2 "/>
<path fill="none" stroke="black" d="M330.574,-1324.2C330.574,-1318.2 336.574,-1312.2 342.574,-1312.2"/>
<text text-anchor="middle" x="403.574" y="-1433.6" font-family="Times Roman,serif" font-size="14.00">ContactsController</text>
<polyline fill="none" stroke="black" points="330.574,-1424.2 476.574,-1424.2 "/>
<text text-anchor="start" x="338.574" y="-1407.6" font-family="Times Roman,serif" font-size="14.00">create</text>
<text text-anchor="start" x="338.574" y="-1389.6" font-family="Times Roman,serif" font-size="14.00">destroy</text>
<text text-anchor="start" x="338.574" y="-1371.6" font-family="Times Roman,serif" font-size="14.00">index</text>
<polyline fill="none" stroke="black" points="330.574,-1362.2 476.574,-1362.2 "/>
<polyline fill="none" stroke="black" points="330.574,-1338.2 476.574,-1338.2 "/>
<text text-anchor="start" x="338.574" y="-1321.6" font-family="Times Roman,serif" font-size="14.00">_layout</text>
</g>
<!-- ApplicationController&#45;&gt;ContactsController -->
<g id="edge28" class="edge"><title>ApplicationController&#45;&gt;ContactsController</title>
<path fill="none" stroke="black" d="M479.348,-1016.06C463.174,-1094 435,-1229.77 417.94,-1311.97"/>
</g>
<!-- NotificationController -->
<g id="node10" class="node"><title>NotificationController</title>
<polyline fill="none" stroke="black" points="1117,-829.5 1257,-829.5 "/>
<path fill="none" stroke="black" d="M1257,-829.5C1263,-829.5 1269,-835.5 1269,-841.5"/>
<polyline fill="none" stroke="black" points="1269,-841.5 1269,-917.5 "/>
<path fill="none" stroke="black" d="M1269,-917.5C1269,-923.5 1263,-929.5 1257,-929.5"/>
<polyline fill="none" stroke="black" points="1257,-929.5 1117,-929.5 "/>
<path fill="none" stroke="black" d="M1117,-929.5C1111,-929.5 1105,-923.5 1105,-917.5"/>
<polyline fill="none" stroke="black" points="1105,-917.5 1105,-841.5 "/>
<path fill="none" stroke="black" d="M1105,-841.5C1105,-835.5 1111,-829.5 1117,-829.5"/>
<text text-anchor="middle" x="1187" y="-912.9" font-family="Times Roman,serif" font-size="14.00">NotificationController</text>
<polyline fill="none" stroke="black" points="1105,-903.5 1269,-903.5 "/>
<text text-anchor="start" x="1113" y="-886.9" font-family="Times Roman,serif" font-size="14.00">broadcast_new</text>
<polyline fill="none" stroke="black" points="1105,-877.5 1269,-877.5 "/>
<polyline fill="none" stroke="black" points="1105,-853.5 1269,-853.5 "/>
</g>
<!-- CommentController -->
<g id="node12" class="node"><title>CommentController</title>
<polyline fill="none" stroke="black" points="1117,-1036.5 1245,-1036.5 "/>
<path fill="none" stroke="black" d="M1245,-1036.5C1251,-1036.5 1257,-1042.5 1257,-1048.5"/>
<polyline fill="none" stroke="black" points="1257,-1048.5 1257,-1124.5 "/>
<path fill="none" stroke="black" d="M1257,-1124.5C1257,-1130.5 1251,-1136.5 1245,-1136.5"/>
<polyline fill="none" stroke="black" points="1245,-1136.5 1117,-1136.5 "/>
<path fill="none" stroke="black" d="M1117,-1136.5C1111,-1136.5 1105,-1130.5 1105,-1124.5"/>
<polyline fill="none" stroke="black" points="1105,-1124.5 1105,-1048.5 "/>
<path fill="none" stroke="black" d="M1105,-1048.5C1105,-1042.5 1111,-1036.5 1117,-1036.5"/>
<text text-anchor="middle" x="1181" y="-1119.9" font-family="Times Roman,serif" font-size="14.00">CommentController</text>
<polyline fill="none" stroke="black" points="1105,-1110.5 1257,-1110.5 "/>
<text text-anchor="start" x="1113" y="-1093.9" font-family="Times Roman,serif" font-size="14.00">broadcast_new</text>
<polyline fill="none" stroke="black" points="1105,-1084.5 1257,-1084.5 "/>
<polyline fill="none" stroke="black" points="1105,-1060.5 1257,-1060.5 "/>
</g>
<!-- Admin::DoctypesController -->
<g id="node13" class="node"><title>Admin::DoctypesController</title>
<polyline fill="none" stroke="black" points="800.932,-47.7789 978.932,-47.7789 "/>
<path fill="none" stroke="black" d="M978.932,-47.7789C984.932,-47.7789 990.932,-53.7789 990.932,-59.7789"/>
<polyline fill="none" stroke="black" points="990.932,-59.7789 990.932,-281.779 "/>
<path fill="none" stroke="black" d="M990.932,-281.779C990.932,-287.779 984.932,-293.779 978.932,-293.779"/>
<polyline fill="none" stroke="black" points="978.932,-293.779 800.932,-293.779 "/>
<path fill="none" stroke="black" d="M800.932,-293.779C794.932,-293.779 788.932,-287.779 788.932,-281.779"/>
<polyline fill="none" stroke="black" points="788.932,-281.779 788.932,-59.7789 "/>
<path fill="none" stroke="black" d="M788.932,-59.7789C788.932,-53.7789 794.932,-47.7789 800.932,-47.7789"/>
<text text-anchor="middle" x="889.932" y="-277.179" font-family="Times Roman,serif" font-size="14.00">Admin::DoctypesController</text>
<polyline fill="none" stroke="black" points="788.932,-267.779 990.932,-267.779 "/>
<text text-anchor="start" x="796.932" y="-251.179" font-family="Times Roman,serif" font-size="14.00">create</text>
<text text-anchor="start" x="796.932" y="-233.179" font-family="Times Roman,serif" font-size="14.00">destroy</text>
<text text-anchor="start" x="796.932" y="-215.179" font-family="Times Roman,serif" font-size="14.00">edit</text>
<text text-anchor="start" x="796.932" y="-197.179" font-family="Times Roman,serif" font-size="14.00">index</text>
<text text-anchor="start" x="796.932" y="-179.179" font-family="Times Roman,serif" font-size="14.00">new</text>
<text text-anchor="start" x="796.932" y="-161.179" font-family="Times Roman,serif" font-size="14.00">set_doctype</text>
<text text-anchor="start" x="796.932" y="-143.179" font-family="Times Roman,serif" font-size="14.00">show</text>
<text text-anchor="start" x="796.932" y="-125.179" font-family="Times Roman,serif" font-size="14.00">update</text>
<polyline fill="none" stroke="black" points="788.932,-115.779 990.932,-115.779 "/>
<polyline fill="none" stroke="black" points="788.932,-91.7789 990.932,-91.7789 "/>
<text text-anchor="start" x="796.932" y="-75.1789" font-family="Times Roman,serif" font-size="14.00">_layout</text>
<text text-anchor="start" x="796.932" y="-57.1789" font-family="Times Roman,serif" font-size="14.00">doctype_params</text>
</g>
<!-- Admin::AdminController&#45;&gt;Admin::DoctypesController -->
<g id="edge18" class="edge"><title>Admin::AdminController&#45;&gt;Admin::DoctypesController</title>
<path fill="none" stroke="black" d="M612.143,-196.171C665.712,-191.274 733.519,-185.076 788.73,-180.029"/>
</g>
<!-- Admin::UsersController -->
<g id="node15" class="node"><title>Admin::UsersController</title>
<polyline fill="none" stroke="black" points="59.6479,-1.5 211.648,-1.5 "/>
<path fill="none" stroke="black" d="M211.648,-1.5C217.648,-1.5 223.648,-7.5 223.648,-13.5"/>
<polyline fill="none" stroke="black" points="223.648,-13.5 223.648,-271.5 "/>
<path fill="none" stroke="black" d="M223.648,-271.5C223.648,-277.5 217.648,-283.5 211.648,-283.5"/>
<polyline fill="none" stroke="black" points="211.648,-283.5 59.6479,-283.5 "/>
<path fill="none" stroke="black" d="M59.6479,-283.5C53.6479,-283.5 47.6479,-277.5 47.6479,-271.5"/>
<polyline fill="none" stroke="black" points="47.6479,-271.5 47.6479,-13.5 "/>
<path fill="none" stroke="black" d="M47.6479,-13.5C47.6479,-7.5 53.6479,-1.5 59.6479,-1.5"/>
<text text-anchor="middle" x="135.648" y="-266.9" font-family="Times Roman,serif" font-size="14.00">Admin::UsersController</text>
<polyline fill="none" stroke="black" points="47.6479,-257.5 223.648,-257.5 "/>
<text text-anchor="start" x="55.6479" y="-240.9" font-family="Times Roman,serif" font-size="14.00">_callback_before_27</text>
<text text-anchor="start" x="55.6479" y="-222.9" font-family="Times Roman,serif" font-size="14.00">avatar</text>
<text text-anchor="start" x="55.6479" y="-204.9" font-family="Times Roman,serif" font-size="14.00">create</text>
<text text-anchor="start" x="55.6479" y="-186.9" font-family="Times Roman,serif" font-size="14.00">destroy</text>
<text text-anchor="start" x="55.6479" y="-168.9" font-family="Times Roman,serif" font-size="14.00">edit</text>
<text text-anchor="start" x="55.6479" y="-150.9" font-family="Times Roman,serif" font-size="14.00">index</text>
<text text-anchor="start" x="55.6479" y="-132.9" font-family="Times Roman,serif" font-size="14.00">new</text>
<text text-anchor="start" x="55.6479" y="-114.9" font-family="Times Roman,serif" font-size="14.00">show</text>
<text text-anchor="start" x="55.6479" y="-96.9" font-family="Times Roman,serif" font-size="14.00">update</text>
<polyline fill="none" stroke="black" points="47.6479,-87.5 223.648,-87.5 "/>
<polyline fill="none" stroke="black" points="47.6479,-63.5 223.648,-63.5 "/>
<text text-anchor="start" x="55.6479" y="-46.9" font-family="Times Roman,serif" font-size="14.00">_layout</text>
<text text-anchor="start" x="55.6479" y="-28.9" font-family="Times Roman,serif" font-size="14.00">set_user</text>
<text text-anchor="start" x="55.6479" y="-10.9" font-family="Times Roman,serif" font-size="14.00">user_params</text>
</g>
<!-- Admin::AdminController&#45;&gt;Admin::UsersController -->
<g id="edge22" class="edge"><title>Admin::AdminController&#45;&gt;Admin::UsersController</title>
<path fill="none" stroke="black" d="M429.622,-189.813C367.427,-179.803 285.53,-166.623 223.977,-156.716"/>
</g>
<!-- Admin::GroupsController -->
<g id="node16" class="node"><title>Admin::GroupsController</title>
<polyline fill="none" stroke="black" points="851.968,-445.261 1015.97,-445.261 "/>
<path fill="none" stroke="black" d="M1015.97,-445.261C1021.97,-445.261 1027.97,-451.261 1027.97,-457.261"/>
<polyline fill="none" stroke="black" points="1027.97,-457.261 1027.97,-679.261 "/>
<path fill="none" stroke="black" d="M1027.97,-679.261C1027.97,-685.261 1021.97,-691.261 1015.97,-691.261"/>
<polyline fill="none" stroke="black" points="1015.97,-691.261 851.968,-691.261 "/>
<path fill="none" stroke="black" d="M851.968,-691.261C845.968,-691.261 839.968,-685.261 839.968,-679.261"/>
<polyline fill="none" stroke="black" points="839.968,-679.261 839.968,-457.261 "/>
<path fill="none" stroke="black" d="M839.968,-457.261C839.968,-451.261 845.968,-445.261 851.968,-445.261"/>
<text text-anchor="middle" x="933.968" y="-674.661" font-family="Times Roman,serif" font-size="14.00">Admin::GroupsController</text>
<polyline fill="none" stroke="black" points="839.968,-665.261 1027.97,-665.261 "/>
<text text-anchor="start" x="847.968" y="-648.661" font-family="Times Roman,serif" font-size="14.00">create</text>
<text text-anchor="start" x="847.968" y="-630.661" font-family="Times Roman,serif" font-size="14.00">destroy</text>
<text text-anchor="start" x="847.968" y="-612.661" font-family="Times Roman,serif" font-size="14.00">edit</text>
<text text-anchor="start" x="847.968" y="-594.661" font-family="Times Roman,serif" font-size="14.00">index</text>
<text text-anchor="start" x="847.968" y="-576.661" font-family="Times Roman,serif" font-size="14.00">new</text>
<text text-anchor="start" x="847.968" y="-558.661" font-family="Times Roman,serif" font-size="14.00">set_group</text>
<text text-anchor="start" x="847.968" y="-540.661" font-family="Times Roman,serif" font-size="14.00">show</text>
<text text-anchor="start" x="847.968" y="-522.661" font-family="Times Roman,serif" font-size="14.00">update</text>
<polyline fill="none" stroke="black" points="839.968,-513.261 1027.97,-513.261 "/>
<polyline fill="none" stroke="black" points="839.968,-489.261 1027.97,-489.261 "/>
<text text-anchor="start" x="847.968" y="-472.661" font-family="Times Roman,serif" font-size="14.00">_layout</text>
<text text-anchor="start" x="847.968" y="-454.661" font-family="Times Roman,serif" font-size="14.00">group_params</text>
</g>
<!-- Admin::AdminController&#45;&gt;Admin::GroupsController -->
<g id="edge24" class="edge"><title>Admin::AdminController&#45;&gt;Admin::GroupsController</title>
<path fill="none" stroke="black" d="M577.926,-254.705C645.534,-314.245 759.222,-414.367 839.93,-485.444"/>
</g>
</g>
</svg>
