<?xml version="1.0" encoding="UTF-8" standalone="no"?>
<!DOCTYPE svg PUBLIC "-//W3C//DTD SVG 1.1//EN"
 "http://www.w3.org/Graphics/SVG/1.1/DTD/svg11.dtd">
<!-- Generated by graphviz version 2.26.3 (20100126.1600)
 -->
<!-- Title: models_diagram Pages: 1 -->
<svg width="2254pt" height="642pt"
 viewBox="0.00 0.00 2253.87 642.00" xmlns="http://www.w3.org/2000/svg" xmlns:xlink="http://www.w3.org/1999/xlink">
<g id="graph1" class="graph" transform="scale(1 1) rotate(0) translate(4 638)">
<title>models_diagram</title>
<polygon fill="white" stroke="white" points="-4,5 -4,-638 2250.87,-638 2250.87,5 -4,5"/>
<!-- _diagram_info -->
<g id="node1" class="node"><title>_diagram_info</title>
<text text-anchor="start" x="669.869" y="-617.8" font-family="Times Roman,serif" font-size="13.00">Models diagram</text>
<text text-anchor="start" x="669.869" y="-600.8" font-family="Times Roman,serif" font-size="13.00">Date: Jun 06 2014 &#45; 16:29</text>
<text text-anchor="start" x="669.869" y="-583.8" font-family="Times Roman,serif" font-size="13.00">Migration version: 20140601230316</text>
<text text-anchor="start" x="669.869" y="-566.8" font-family="Times Roman,serif" font-size="13.00">Generated by RailRoady 1.1.1</text>
<text text-anchor="start" x="669.869" y="-549.8" font-family="Times Roman,serif" font-size="13.00">http://railroady.prestonlee.com</text>
</g>
<!-- DocumentHasType -->
<g id="node2" class="node"><title>DocumentHasType</title>
<ellipse fill="none" stroke="black" cx="280.869" cy="-187" rx="102.03" ry="18.3848"/>
<text text-anchor="middle" x="280.869" y="-183.4" font-family="Times Roman,serif" font-size="14.00">DocumentHasType</text>
</g>
<!-- EventsHasGuest -->
<g id="node3" class="node"><title>EventsHasGuest</title>
<ellipse fill="none" stroke="black" cx="145.869" cy="-483" rx="92.1303" ry="18.3848"/>
<text text-anchor="middle" x="145.869" y="-479.4" font-family="Times Roman,serif" font-size="14.00">EventsHasGuest</text>
</g>
<!-- Checklist -->
<g id="node4" class="node"><title>Checklist</title>
<ellipse fill="none" stroke="black" cx="573.869" cy="-111" rx="55.8614" ry="18.3848"/>
<text text-anchor="middle" x="573.869" y="-107.4" font-family="Times Roman,serif" font-size="14.00">Checklist</text>
</g>
<!-- UserHasAccess -->
<g id="node5" class="node"><title>UserHasAccess</title>
<ellipse fill="none" stroke="black" cx="597.869" cy="-187" rx="84.1457" ry="18.3848"/>
<text text-anchor="middle" x="597.869" y="-183.4" font-family="Times Roman,serif" font-size="14.00">UserHasAccess</text>
</g>
<!-- EventHasGuest -->
<g id="node6" class="node"><title>EventHasGuest</title>
<ellipse fill="none" stroke="black" cx="1703.87" cy="-111" rx="87.1802" ry="18.3848"/>
<text text-anchor="middle" x="1703.87" y="-107.4" font-family="Times Roman,serif" font-size="14.00">EventHasGuest</text>
</g>
<!-- NewsPost -->
<g id="node7" class="node"><title>NewsPost</title>
<ellipse fill="none" stroke="black" cx="760.869" cy="-483" rx="58.8978" ry="18.3848"/>
<text text-anchor="middle" x="760.869" y="-479.4" font-family="Times Roman,serif" font-size="14.00">NewsPost</text>
</g>
<!-- Group -->
<g id="node9" class="node"><title>Group</title>
<ellipse fill="none" stroke="black" cx="865.869" cy="-187" rx="41.2167" ry="18.3848"/>
<text text-anchor="middle" x="865.869" y="-183.4" font-family="Times Roman,serif" font-size="14.00">Group</text>
</g>
<!-- NewsPost&#45;&gt;Group -->
<g id="edge12" class="edge"><title>NewsPost&#45;&gt;Group</title>
<path fill="none" stroke="#7caaac" d="M758.953,-453.9C757.048,-402.846 759.695,-295.758 807.869,-224 812.797,-216.659 819.726,-210.469 827.085,-205.379"/>
<polygon fill="#7caaac" stroke="#7caaac" points="758.967,-454.208 754.934,-464.405 759.198,-459.202 759.429,-464.197 759.429,-464.197 759.429,-464.197 759.198,-459.202 763.924,-463.989 758.967,-454.208 758.967,-454.208"/>
<polygon fill="#7caaac" stroke="#7caaac" points="827.352,-205.212 838.216,-203.72 831.591,-202.559 835.829,-199.906 835.829,-199.906 835.829,-199.906 831.591,-202.559 833.441,-196.092 827.352,-205.212 827.352,-205.212"/>
</g>
<!-- Document -->
<g id="node10" class="node"><title>Document</title>
<ellipse fill="none" stroke="black" cx="548.869" cy="-371" rx="62.2254" ry="18.3848"/>
<text text-anchor="middle" x="548.869" y="-367.4" font-family="Times Roman,serif" font-size="14.00">Document</text>
</g>
<!-- NewsPost&#45;&gt;Document -->
<g id="edge14" class="edge"><title>NewsPost&#45;&gt;Document</title>
<path fill="none" stroke="#32b571" d="M721.59,-462.249C683.756,-442.261 626.814,-412.179 588.772,-392.081"/>
<polygon fill="#32b571" stroke="#32b571" points="721.652,-462.282 728.392,-470.932 726.073,-464.617 730.494,-466.953 730.494,-466.953 730.494,-466.953 726.073,-464.617 732.596,-462.974 721.652,-462.282 721.652,-462.282"/>
<polygon fill="#32b571" stroke="#32b571" points="588.373,-391.87 581.633,-383.22 583.952,-389.534 579.531,-387.199 579.531,-387.199 579.531,-387.199 583.952,-389.534 577.429,-391.178 588.373,-391.87 588.373,-391.87"/>
</g>
<!-- Comment -->
<g id="node19" class="node"><title>Comment</title>
<ellipse fill="none" stroke="black" cx="1081.87" cy="-111" rx="58.1882" ry="18.3848"/>
<text text-anchor="middle" x="1081.87" y="-107.4" font-family="Times Roman,serif" font-size="14.00">Comment</text>
</g>
<!-- NewsPost&#45;&gt;Comment -->
<g id="edge16" class="edge"><title>NewsPost&#45;&gt;Comment</title>
<path fill="none" stroke="#583d00" d="M769.965,-456.707C771.034,-453.134 772.038,-449.494 772.869,-446 780.102,-415.592 794.413,-190.729 815.869,-168 842.675,-139.603 945.843,-124.108 1015.53,-116.697"/>
<ellipse fill="none" stroke="#583d00" cx="768.763" cy="-460.527" rx="4.00001" ry="4.00001"/>
<polygon fill="#583d00" stroke="#583d00" points="1015.61,-116.688 1026.02,-120.137 1020.59,-116.175 1025.56,-115.661 1025.56,-115.661 1025.56,-115.661 1020.59,-116.175 1025.1,-111.185 1015.61,-116.688 1015.61,-116.688"/>
</g>
<!-- Subscription -->
<g id="node8" class="node"><title>Subscription</title>
<ellipse fill="none" stroke="black" cx="1857.87" cy="-187" rx="70.9184" ry="18.3848"/>
<text text-anchor="middle" x="1857.87" y="-183.4" font-family="Times Roman,serif" font-size="14.00">Subscription</text>
</g>
<!-- StudentInfo -->
<g id="node16" class="node"><title>StudentInfo</title>
<ellipse fill="none" stroke="black" cx="155.869" cy="-111" rx="68.7979" ry="18.3848"/>
<text text-anchor="middle" x="155.869" y="-107.4" font-family="Times Roman,serif" font-size="14.00">StudentInfo</text>
</g>
<!-- Group&#45;&gt;StudentInfo -->
<g id="edge22" class="edge"><title>Group&#45;&gt;StudentInfo</title>
<path fill="none" stroke="#1bbc66" d="M817.726,-181.747C782.574,-177.918 733.767,-172.614 690.869,-168 526.39,-150.309 333.437,-129.816 230.126,-118.864"/>
<ellipse fill="none" stroke="#1bbc66" cx="821.93" cy="-182.205" rx="4" ry="4"/>
<polygon fill="#1bbc66" stroke="#1bbc66" points="230.053,-118.856 220.583,-113.327 225.08,-118.329 220.108,-117.802 220.108,-117.802 220.108,-117.802 225.08,-118.329 219.634,-122.277 230.053,-118.856 230.053,-118.856"/>
</g>
<!-- User -->
<g id="node21" class="node"><title>User</title>
<ellipse fill="none" stroke="black" cx="1106.87" cy="-279" rx="33.9411" ry="18.3848"/>
<text text-anchor="middle" x="1106.87" y="-275.4" font-family="Times Roman,serif" font-size="14.00">User</text>
</g>
<!-- Group&#45;&gt;User -->
<g id="edge24" class="edge"><title>Group&#45;&gt;User</title>
<path fill="none" stroke="#6525a5" d="M893.791,-210.386C905.499,-221.604 919.69,-234.256 934.869,-242 957.417,-253.505 1020.97,-264.889 1064.28,-271.927"/>
<polygon fill="#6525a5" stroke="#6525a5" points="893.65,-210.249 889.604,-200.057 890.06,-206.768 886.471,-203.287 886.471,-203.287 886.471,-203.287 890.06,-206.768 883.338,-206.518 893.65,-210.249 893.65,-210.249"/>
<polygon fill="#6525a5" stroke="#6525a5" points="1064.4,-271.946 1073.56,-277.977 1069.34,-272.74 1074.28,-273.534 1074.28,-273.534 1074.28,-273.534 1069.34,-272.74 1074.99,-269.091 1064.4,-271.946 1064.4,-271.946"/>
</g>
<!-- Document&#45;&gt;DocumentHasType -->
<g id="edge38" class="edge"><title>Document&#45;&gt;DocumentHasType</title>
<path fill="none" stroke="#0c6d6a" d="M511.165,-350.873C501.792,-345.595 491.858,-339.762 482.869,-334 420.405,-293.961 351.225,-241.795 312.195,-211.586"/>
<ellipse fill="none" stroke="#0c6d6a" cx="514.704" cy="-352.844" rx="4.00002" ry="4.00002"/>
<polygon fill="#0c6d6a" stroke="#0c6d6a" points="311.771,-211.256 306.633,-201.569 307.822,-208.19 303.873,-205.123 303.873,-205.123 303.873,-205.123 307.822,-208.19 301.113,-208.677 311.771,-211.256 311.771,-211.256"/>
</g>
<!-- Document&#45;&gt;UserHasAccess -->
<g id="edge28" class="edge"><title>Document&#45;&gt;UserHasAccess</title>
<path fill="none" stroke="#791ad6" d="M558.64,-344.893C563.599,-331.075 569.485,-313.751 573.869,-298 581.581,-270.288 588.298,-238.111 592.649,-215.559"/>
<ellipse fill="none" stroke="#791ad6" cx="557.211" cy="-348.826" rx="4.00001" ry="4.00001"/>
<polygon fill="#791ad6" stroke="#791ad6" points="592.67,-215.449 598.954,-206.462 593.601,-210.536 594.533,-205.624 594.533,-205.624 594.533,-205.624 593.601,-210.536 590.111,-204.785 592.67,-215.449 592.67,-215.449"/>
</g>
<!-- Document&#45;&gt;UserHasAccess -->
<g id="edge30" class="edge"><title>Document&#45;&gt;UserHasAccess</title>
<path fill="none" stroke="#7d1097" d="M571.09,-346.886C574.289,-342.761 577.346,-338.386 579.869,-334 604.817,-290.624 607.887,-273.877 603.869,-224 603.651,-221.296 603.345,-218.491 602.985,-215.691"/>
<ellipse fill="none" stroke="#7d1097" cx="568.53" cy="-350.029" rx="4.00002" ry="4.00002"/>
<polygon fill="#7d1097" stroke="#7d1097" points="602.978,-215.643 605.96,-205.09 602.244,-210.697 601.509,-205.752 601.509,-205.752 601.509,-205.752 602.244,-210.697 597.058,-206.413 602.978,-215.643 602.978,-215.643"/>
<text text-anchor="middle" x="655.869" y="-275.4" font-family="Times Roman,serif" font-size="14.00">view_accesses</text>
</g>
<!-- Document&#45;&gt;UserHasAccess -->
<g id="edge32" class="edge"><title>Document&#45;&gt;UserHasAccess</title>
<path fill="none" stroke="#31e951" d="M517.606,-348.678C490.758,-326.615 458.991,-291.665 476.869,-260 490.826,-235.278 516.889,-217.99 541.261,-206.467"/>
<ellipse fill="none" stroke="#31e951" cx="520.812" cy="-351.234" rx="4.00002" ry="4.00002"/>
<polygon fill="#31e951" stroke="#31e951" points="541.365,-206.42 552.331,-206.436 545.928,-204.375 550.49,-202.33 550.49,-202.33 550.49,-202.33 545.928,-204.375 548.649,-198.223 541.365,-206.42 541.365,-206.42"/>
<text text-anchor="middle" x="523.369" y="-275.4" font-family="Times Roman,serif" font-size="14.00">edit_accesses</text>
</g>
<!-- Document&#45;&gt;Document -->
<g id="edge40" class="edge"><title>Document&#45;&gt;Document</title>
<path fill="none" stroke="#2e1136" d="M612.296,-378.898C622.153,-377.714 628.869,-375.081 628.869,-371 628.869,-367.199 623.043,-364.655 614.28,-363.366"/>
<ellipse fill="none" stroke="#2e1136" cx="608.193" cy="-379.214" rx="4" ry="4"/>
<polygon fill="#2e1136" stroke="#2e1136" points="614.166,-363.356 604.6,-357.996 609.186,-362.917 604.205,-362.478 604.205,-362.478 604.205,-362.478 609.186,-362.917 603.81,-366.961 614.166,-363.356 614.166,-363.356"/>
<text text-anchor="middle" x="686.369" y="-367.4" font-family="Times Roman,serif" font-size="14.00">child_documents</text>
</g>
<!-- FileInfo -->
<g id="node13" class="node"><title>FileInfo</title>
<ellipse fill="none" stroke="black" cx="921.869" cy="-279" rx="46.1672" ry="18.3848"/>
<text text-anchor="middle" x="921.869" y="-275.4" font-family="Times Roman,serif" font-size="14.00">FileInfo</text>
</g>
<!-- Document&#45;&gt;FileInfo -->
<g id="edge42" class="edge"><title>Document&#45;&gt;FileInfo</title>
<path fill="none" stroke="#5af018" d="M604.978,-357.161C678.369,-339.059 805.676,-307.659 874.475,-290.69"/>
<ellipse fill="none" stroke="#5af018" cx="600.752" cy="-358.203" rx="4.00001" ry="4.00001"/>
<ellipse fill="#5af018" stroke="#5af018" cx="878.683" cy="-289.652" rx="4.00001" ry="4.00001"/>
</g>
<!-- DocumentType -->
<g id="node18" class="node"><title>DocumentType</title>
<ellipse fill="none" stroke="black" cx="280.869" cy="-279" rx="84.1457" ry="18.3848"/>
<text text-anchor="middle" x="280.869" y="-275.4" font-family="Times Roman,serif" font-size="14.00">DocumentType</text>
</g>
<!-- Document&#45;&gt;DocumentType -->
<g id="edge36" class="edge"><title>Document&#45;&gt;DocumentType</title>
<path fill="none" stroke="#72de14" d="M498.56,-353.777C480.38,-347.549 459.699,-340.462 440.869,-334 406.022,-322.042 366.914,-308.599 336.085,-297.996"/>
<polygon fill="#72de14" stroke="#72de14" points="498.634,-353.802 506.636,-361.299 503.364,-355.422 508.094,-357.042 508.094,-357.042 508.094,-357.042 503.364,-355.422 509.552,-352.785 498.634,-353.802 498.634,-353.802"/>
<polygon fill="#72de14" stroke="#72de14" points="335.839,-297.912 327.846,-290.404 331.111,-296.285 326.382,-294.659 326.382,-294.659 326.382,-294.659 331.111,-296.285 324.919,-298.915 335.839,-297.912 335.839,-297.912"/>
</g>
<!-- Document&#45;&gt;User -->
<g id="edge34" class="edge"><title>Document&#45;&gt;User</title>
<path fill="none" stroke="#e6b97c" d="M613.49,-360.346C728.745,-341.343 966.794,-302.095 1064.05,-286.059"/>
<polygon fill="#e6b97c" stroke="#e6b97c" points="613.255,-360.384 602.656,-357.571 608.322,-361.198 603.388,-362.011 603.388,-362.011 603.388,-362.011 608.322,-361.198 604.12,-366.451 613.255,-360.384 613.255,-360.384"/>
<polygon fill="#e6b97c" stroke="#e6b97c" points="1064.24,-286.028 1074.84,-288.841 1069.18,-285.214 1074.11,-284.401 1074.11,-284.401 1074.11,-284.401 1069.18,-285.214 1073.38,-279.961 1064.24,-286.028 1064.24,-286.028"/>
</g>
<!-- Task -->
<g id="node11" class="node"><title>Task</title>
<ellipse fill="none" stroke="black" cx="1151.87" cy="-187" rx="33.234" ry="18.3848"/>
<text text-anchor="middle" x="1151.87" y="-183.4" font-family="Times Roman,serif" font-size="14.00">Task</text>
</g>
<!-- Task&#45;&gt;Checklist -->
<g id="edge48" class="edge"><title>Task&#45;&gt;Checklist</title>
<path fill="none" stroke="#cf4f22" d="M1111.33,-181.669C1011.89,-168.594 755.371,-134.865 636.302,-119.209"/>
<ellipse fill="none" stroke="#cf4f22" cx="1115.59" cy="-182.23" rx="4.00001" ry="4.00001"/>
<polygon fill="#cf4f22" stroke="#cf4f22" points="636.164,-119.191 626.836,-113.426 631.206,-118.539 626.249,-117.887 626.249,-117.887 626.249,-117.887 631.206,-118.539 625.662,-122.349 636.164,-119.191 636.164,-119.191"/>
</g>
<!-- Task&#45;&gt;Comment -->
<g id="edge50" class="edge"><title>Task&#45;&gt;Comment</title>
<path fill="none" stroke="#ea7d7c" d="M1131.09,-164.442C1122.89,-155.542 1113.44,-145.279 1105.02,-136.141"/>
<ellipse fill="none" stroke="#ea7d7c" cx="1133.97" cy="-167.567" rx="4.00002" ry="4.00002"/>
<polygon fill="#ea7d7c" stroke="#ea7d7c" points="1105.02,-136.14 1101.56,-125.735 1101.64,-132.462 1098.25,-128.784 1098.25,-128.784 1098.25,-128.784 1101.64,-132.462 1094.94,-131.833 1105.02,-136.14 1105.02,-136.14"/>
</g>
<!-- Task&#45;&gt;User -->
<g id="edge46" class="edge"><title>Task&#45;&gt;User</title>
<path fill="none" stroke="#1ce2db" d="M1120.97,-206.974C1115.69,-211.874 1110.93,-217.584 1107.87,-224 1104.04,-232.029 1102.87,-241.495 1102.92,-250.29"/>
<polygon fill="#1ce2db" stroke="#1ce2db" points="1121.23,-206.757 1131.81,-203.855 1125.09,-203.572 1128.94,-200.387 1128.94,-200.387 1128.94,-200.387 1125.09,-203.572 1126.08,-196.918 1121.23,-206.757 1121.23,-206.757"/>
<polygon fill="#1ce2db" stroke="#1ce2db" points="1102.94,-250.56 1099.01,-260.798 1103.22,-255.552 1103.5,-260.544 1103.5,-260.544 1103.5,-260.544 1103.22,-255.552 1107.99,-260.29 1102.94,-250.56 1102.94,-250.56"/>
<text text-anchor="middle" x="1141.37" y="-229.4" font-family="Times Roman,serif" font-size="14.00">executors</text>
</g>
<!-- PublicActivity::Activity -->
<g id="node51" class="node"><title>PublicActivity::Activity</title>
<ellipse fill="none" stroke="black" cx="1175.87" cy="-19" rx="120.208" ry="18.3848"/>
<text text-anchor="middle" x="1175.87" y="-15.4" font-family="Times Roman,serif" font-size="14.00">PublicActivity::Activity</text>
</g>
<!-- Task&#45;&gt;PublicActivity::Activity -->
<g id="edge52" class="edge"><title>Task&#45;&gt;PublicActivity::Activity</title>
<path fill="none" stroke="#348b43" d="M1155.69,-160.225C1160.09,-129.453 1167.28,-79.1502 1171.78,-47.6215"/>
<ellipse fill="none" stroke="#348b43" cx="1155.09" cy="-164.419" rx="4.00001" ry="4.00001"/>
<polygon fill="#348b43" stroke="#348b43" points="1171.78,-47.6037 1177.65,-38.3407 1172.49,-42.654 1173.2,-37.7042 1173.2,-37.7042 1173.2,-37.7042 1172.49,-42.654 1168.74,-37.0678 1171.78,-47.6037 1171.78,-47.6037"/>
<text text-anchor="middle" x="1196.87" y="-107.4" font-family="Times Roman,serif" font-size="14.00">activities</text>
</g>
<!-- Tag -->
<g id="node12" class="node"><title>Tag</title>
<ellipse fill="none" stroke="black" cx="1349.87" cy="-427" rx="27.7881" ry="18.3848"/>
<text text-anchor="middle" x="1349.87" y="-423.4" font-family="Times Roman,serif" font-size="14.00">Tag</text>
</g>
<!-- Tag&#45;&gt;Task -->
<g id="edge56" class="edge"><title>Tag&#45;&gt;Task</title>
<path fill="none" stroke="#fd0d26" d="M1380.64,-410.577C1454.73,-370.061 1634.16,-265.616 1595.87,-224 1594.18,-222.163 1306.08,-199.196 1194.92,-190.398"/>
<polygon fill="#fd0d26" stroke="#fd0d26" points="1380.53,-410.64 1369.59,-411.461 1376.13,-413.028 1371.74,-415.415 1371.74,-415.415 1371.74,-415.415 1376.13,-413.028 1373.89,-419.369 1380.53,-410.64 1380.53,-410.64"/>
<polygon fill="#fd0d26" stroke="#fd0d26" points="1194.7,-190.381 1185.09,-185.106 1189.72,-189.986 1184.73,-189.592 1184.73,-189.592 1184.73,-189.592 1189.72,-189.986 1184.38,-194.078 1194.7,-190.381 1194.7,-190.381"/>
</g>
<!-- Ability -->
<g id="node14" class="node"><title>Ability</title>
<polygon fill="none" stroke="black" points="2232.87,-501 2172.87,-501 2172.87,-465 2232.87,-465 2232.87,-501"/>
<text text-anchor="middle" x="2202.87" y="-479.4" font-family="Times Roman,serif" font-size="14.00">Ability</text>
</g>
<!-- Event -->
<g id="node15" class="node"><title>Event</title>
<ellipse fill="none" stroke="black" cx="1440.87" cy="-187" rx="39.8075" ry="18.3848"/>
<text text-anchor="middle" x="1440.87" y="-183.4" font-family="Times Roman,serif" font-size="14.00">Event</text>
</g>
<!-- Event&#45;&gt;EventHasGuest -->
<g id="edge64" class="edge"><title>Event&#45;&gt;EventHasGuest</title>
<path fill="none" stroke="#a314dc" d="M1482.67,-174.92C1525.69,-162.49 1593.16,-142.99 1642.29,-128.795"/>
<ellipse fill="none" stroke="#a314dc" cx="1478.82" cy="-176.032" rx="4.00001" ry="4.00001"/>
<polygon fill="#a314dc" stroke="#a314dc" points="1642.56,-128.717 1653.42,-130.264 1647.36,-127.329 1652.17,-125.941 1652.17,-125.941 1652.17,-125.941 1647.36,-127.329 1650.92,-121.618 1642.56,-128.717 1642.56,-128.717"/>
</g>
<!-- Event&#45;&gt;Comment -->
<g id="edge68" class="edge"><title>Event&#45;&gt;Comment</title>
<path fill="none" stroke="#31e572" d="M1395.04,-178.803C1338.23,-168.435 1238.55,-149.562 1153.87,-130 1148.06,-128.658 1142.01,-127.182 1135.98,-125.666"/>
<ellipse fill="none" stroke="#31e572" cx="1399.17" cy="-179.554" rx="4.00001" ry="4.00001"/>
<polygon fill="#31e572" stroke="#31e572" points="1135.62,-125.572 1127.05,-118.73 1130.77,-124.331 1125.93,-123.09 1125.93,-123.09 1125.93,-123.09 1130.77,-124.331 1124.81,-127.449 1135.62,-125.572 1135.62,-125.572"/>
</g>
<!-- Event&#45;&gt;User -->
<g id="edge66" class="edge"><title>Event&#45;&gt;User</title>
<path fill="none" stroke="#891bb2" d="M1435.81,-215.189C1432.6,-225.145 1427.38,-235.476 1418.87,-242 1398.05,-257.962 1232.35,-270.827 1151.26,-276.237"/>
<polygon fill="#891bb2" stroke="#891bb2" points="1435.81,-215.175 1442.74,-206.673 1437.1,-210.344 1438.39,-205.513 1438.39,-205.513 1438.39,-205.513 1437.1,-210.344 1434.04,-204.353 1435.81,-215.175 1435.81,-215.175"/>
<polygon fill="#891bb2" stroke="#891bb2" points="1150.85,-276.264 1140.58,-272.43 1145.86,-276.592 1140.87,-276.92 1140.87,-276.92 1140.87,-276.92 1145.86,-276.592 1141.17,-281.41 1150.85,-276.264 1150.85,-276.264"/>
<text text-anchor="middle" x="1455.87" y="-229.4" font-family="Times Roman,serif" font-size="14.00">guests</text>
</g>
<!-- Event&#45;&gt;PublicActivity::Activity -->
<g id="edge70" class="edge"><title>Event&#45;&gt;PublicActivity::Activity</title>
<path fill="none" stroke="#3e009c" d="M1409.93,-167.383C1360.93,-136.322 1265.67,-75.9303 1213.04,-42.5668"/>
<ellipse fill="none" stroke="#3e009c" cx="1413.51" cy="-169.653" rx="4.00002" ry="4.00002"/>
<polygon fill="#3e009c" stroke="#3e009c" points="1212.8,-42.413 1206.76,-33.2581 1208.58,-39.7359 1204.35,-37.0587 1204.35,-37.0587 1204.35,-37.0587 1208.58,-39.7359 1201.94,-40.8593 1212.8,-42.413 1212.8,-42.413"/>
<text text-anchor="middle" x="1378.87" y="-107.4" font-family="Times Roman,serif" font-size="14.00">activities</text>
</g>
<!-- NewsPostHasDoc -->
<g id="node17" class="node"><title>NewsPostHasDoc</title>
<ellipse fill="none" stroke="black" cx="1554.87" cy="-483" rx="96.1665" ry="18.3848"/>
<text text-anchor="middle" x="1554.87" y="-479.4" font-family="Times Roman,serif" font-size="14.00">NewsPostHasDoc</text>
</g>
<!-- DocumentType&#45;&gt;DocumentHasType -->
<g id="edge78" class="edge"><title>DocumentType&#45;&gt;DocumentHasType</title>
<path fill="none" stroke="#69a59f" d="M280.869,-252.029C280.869,-240.599 280.869,-227.267 280.869,-215.66"/>
<ellipse fill="none" stroke="#69a59f" cx="280.869" cy="-256.382" rx="4" ry="4"/>
<polygon fill="#69a59f" stroke="#69a59f" points="280.869,-215.59 285.369,-205.59 280.869,-210.59 280.869,-205.59 280.869,-205.59 280.869,-205.59 280.869,-210.59 276.369,-205.59 280.869,-215.59 280.869,-215.59"/>
</g>
<!-- Comment&#45;&gt;PublicActivity::Activity -->
<g id="edge82" class="edge"><title>Comment&#45;&gt;PublicActivity::Activity</title>
<path fill="none" stroke="#17b600" d="M1086.06,-84.3795C1088.69,-74.5696 1092.96,-63.9281 1099.87,-56 1104.84,-50.2963 1110.89,-45.3892 1117.39,-41.1893"/>
<ellipse fill="none" stroke="#17b600" cx="1085.11" cy="-88.4498" rx="4.00001" ry="4.00001"/>
<polygon fill="#17b600" stroke="#17b600" points="1117.83,-40.934 1128.73,-39.778 1122.14,-38.413 1126.46,-35.8919 1126.46,-35.8919 1126.46,-35.8919 1122.14,-38.413 1124.19,-32.0058 1117.83,-40.934 1117.83,-40.934"/>
<text text-anchor="middle" x="1130.87" y="-61.4" font-family="Times Roman,serif" font-size="14.00">activities</text>
</g>
<!-- Message -->
<g id="node20" class="node"><title>Message</title>
<ellipse fill="none" stroke="black" cx="2005.87" cy="-279" rx="53.033" ry="18.3848"/>
<text text-anchor="middle" x="2005.87" y="-275.4" font-family="Times Roman,serif" font-size="14.00">Message</text>
</g>
<!-- Message&#45;&gt;Subscription -->
<g id="edge86" class="edge"><title>Message&#45;&gt;Subscription</title>
<path fill="none" stroke="#d51326" d="M1979.47,-254.652C1967.6,-244.423 1953.08,-232.869 1938.87,-224 1928.83,-217.733 1917.54,-211.904 1906.66,-206.813"/>
<polygon fill="#d51326" stroke="#d51326" points="1979.72,-254.87 1984.26,-264.852 1983.48,-258.171 1987.23,-261.471 1987.23,-261.471 1987.23,-261.471 1983.48,-258.171 1990.2,-258.091 1979.72,-254.87 1979.72,-254.87"/>
<polygon fill="#d51326" stroke="#d51326" points="1906.35,-206.671 1899.11,-198.439 1901.8,-204.604 1897.25,-202.536 1897.25,-202.536 1897.25,-202.536 1901.8,-204.604 1895.39,-206.634 1906.35,-206.671 1906.35,-206.671"/>
</g>
<!-- User&#45;&gt;UserHasAccess -->
<g id="edge98" class="edge"><title>User&#45;&gt;UserHasAccess</title>
<path fill="none" stroke="#75e34a" d="M1066.37,-271.958C1024.07,-264.58 955.789,-252.61 896.869,-242 820.231,-228.2 732.618,-212.039 672.136,-200.821"/>
<ellipse fill="none" stroke="#75e34a" cx="1070.54" cy="-272.684" rx="4.00001" ry="4.00001"/>
<polygon fill="#75e34a" stroke="#75e34a" points="672.125,-200.819 663.114,-194.571 667.209,-199.907 662.293,-198.995 662.293,-198.995 662.293,-198.995 667.209,-199.907 661.472,-203.42 672.125,-200.819 672.125,-200.819"/>
</g>
<!-- User&#45;&gt;EventHasGuest -->
<g id="edge104" class="edge"><title>User&#45;&gt;EventHasGuest</title>
<path fill="none" stroke="#a9346e" d="M1148.95,-277.698C1260.28,-273.992 1556.7,-262.315 1595.87,-242 1639.74,-219.249 1672.47,-170.111 1689.83,-138.906"/>
<ellipse fill="none" stroke="#a9346e" cx="1144.95" cy="-277.83" rx="4" ry="4"/>
<polygon fill="#a9346e" stroke="#a9346e" points="1689.97,-138.646 1698.68,-131.985 1692.35,-134.247 1694.73,-129.847 1694.73,-129.847 1694.73,-129.847 1692.35,-134.247 1690.77,-127.709 1689.97,-138.646 1689.97,-138.646"/>
</g>
<!-- User&#45;&gt;Subscription -->
<g id="edge96" class="edge"><title>User&#45;&gt;Subscription</title>
<path fill="none" stroke="#417ee9" d="M1149.09,-278.108C1268.45,-275.322 1606.64,-265.52 1714.87,-242 1749.51,-234.472 1786.85,-219.874 1814.68,-207.608"/>
<ellipse fill="none" stroke="#417ee9" cx="1144.88" cy="-278.205" rx="4" ry="4"/>
<polygon fill="#417ee9" stroke="#417ee9" points="1814.98,-207.473 1825.94,-207.489 1819.54,-205.427 1824.1,-203.382 1824.1,-203.382 1824.1,-203.382 1819.54,-205.427 1822.26,-199.276 1814.98,-207.473 1814.98,-207.473"/>
</g>
<!-- User&#45;&gt;Group -->
<g id="edge92" class="edge"><title>User&#45;&gt;Group</title>
<path fill="none" stroke="#a9e1cb" d="M1065.26,-274.049C1017.17,-267.345 941.85,-254.746 916.869,-242 902.243,-234.538 888.533,-222.519 878.763,-211.617"/>
<ellipse fill="none" stroke="#a9e1cb" cx="1069.36" cy="-274.609" rx="4.00001" ry="4.00001"/>
<ellipse fill="#a9e1cb" stroke="#a9e1cb" cx="876.069" cy="-208.426" rx="4.00002" ry="4.00002"/>
</g>
<!-- User&#45;&gt;Task -->
<g id="edge100" class="edge"><title>User&#45;&gt;Task</title>
<path fill="none" stroke="#6c1a2e" d="M1064.53,-271.192C1034.54,-264.7 998.06,-254.515 988.869,-242 984.133,-235.552 983.877,-230.252 988.869,-224 1003.66,-205.473 1065.98,-195.523 1109.12,-190.749"/>
<polygon fill="#6c1a2e" stroke="#6c1a2e" points="1064.62,-271.21 1073.49,-277.656 1069.51,-272.23 1074.41,-273.251 1074.41,-273.251 1074.41,-273.251 1069.51,-272.23 1075.32,-268.845 1064.62,-271.21 1064.62,-271.21"/>
<polygon fill="#6c1a2e" stroke="#6c1a2e" points="1109.15,-190.746 1119.57,-194.174 1114.12,-190.222 1119.1,-189.699 1119.1,-189.699 1119.1,-189.699 1114.12,-190.222 1118.62,-185.223 1109.15,-190.746 1109.15,-190.746"/>
<text text-anchor="middle" x="1044.37" y="-229.4" font-family="Times Roman,serif" font-size="14.00">executing_tasks</text>
</g>
<!-- User&#45;&gt;Task -->
<g id="edge102" class="edge"><title>User&#45;&gt;Task</title>
<path fill="none" stroke="#14414f" d="M1144.42,-267.291C1156.27,-261.624 1168.05,-253.481 1174.87,-242 1180.32,-232.83 1177.65,-222.13 1172.52,-212.617"/>
<ellipse fill="none" stroke="#14414f" cx="1140.74" cy="-268.902" rx="4.00002" ry="4.00002"/>
<polygon fill="#14414f" stroke="#14414f" points="1172.38,-212.397 1170.83,-201.541 1169.71,-208.173 1167.03,-203.949 1167.03,-203.949 1167.03,-203.949 1169.71,-208.173 1163.23,-206.357 1172.38,-212.397 1172.38,-212.397"/>
<text text-anchor="middle" x="1225.87" y="-229.4" font-family="Times Roman,serif" font-size="14.00">leading_tasks</text>
</g>
<!-- User&#45;&gt;Event -->
<g id="edge106" class="edge"><title>User&#45;&gt;Event</title>
<path fill="none" stroke="#986eca" d="M1150.21,-272.914C1185.12,-267.222 1235.09,-257.278 1276.87,-242 1292.93,-236.127 1295,-230.375 1310.87,-224 1338.04,-213.08 1369.62,-204.014 1394.85,-197.589"/>
<polygon fill="#986eca" stroke="#986eca" points="1149.77,-272.984 1139.19,-270.1 1144.83,-273.765 1139.89,-274.545 1139.89,-274.545 1139.89,-274.545 1144.83,-273.765 1140.59,-278.99 1149.77,-272.984 1149.77,-272.984"/>
<polygon fill="#986eca" stroke="#986eca" points="1395.18,-197.505 1405.97,-199.452 1400.03,-196.295 1404.88,-195.086 1404.88,-195.086 1404.88,-195.086 1400.03,-196.295 1403.8,-190.719 1395.18,-197.505 1395.18,-197.505"/>
<text text-anchor="middle" x="1362.87" y="-229.4" font-family="Times Roman,serif" font-size="14.00">visiting_events</text>
</g>
<!-- User&#45;&gt;Event -->
<g id="edge108" class="edge"><title>User&#45;&gt;Event</title>
<path fill="none" stroke="#09df62" d="M1149.18,-277.97C1242.76,-275.254 1460.79,-266.354 1482.87,-242 1492.4,-231.485 1484.19,-218.963 1472.59,-208.526"/>
<ellipse fill="none" stroke="#09df62" cx="1145.05" cy="-278.086" rx="4" ry="4"/>
<polygon fill="#09df62" stroke="#09df62" points="1472.36,-208.342 1467.47,-198.527 1468.49,-205.176 1464.62,-202.01 1464.62,-202.01 1464.62,-202.01 1468.49,-205.176 1461.77,-205.493 1472.36,-208.342 1472.36,-208.342"/>
<text text-anchor="middle" x="1539.87" y="-229.4" font-family="Times Roman,serif" font-size="14.00">leading_events</text>
</g>
<!-- User&#45;&gt;StudentInfo -->
<g id="edge90" class="edge"><title>User&#45;&gt;StudentInfo</title>
<path fill="none" stroke="#368ba6" d="M1065.69,-272.759C1040.08,-267.49 1007.31,-258.131 981.869,-242 944.651,-218.4 955.383,-187.512 915.869,-168 885.529,-153.019 418.309,-125.579 231.855,-115.161"/>
<ellipse fill="none" stroke="#368ba6" cx="1069.81" cy="-273.562" rx="4.00001" ry="4.00001"/>
<ellipse fill="#368ba6" stroke="#368ba6" cx="227.722" cy="-114.931" rx="4" ry="4"/>
</g>
<!-- User&#45;&gt;User -->
<g id="edge94" class="edge"><title>User&#45;&gt;User</title>
<path fill="none" stroke="#d5e322" d="M1147.38,-287.023C1154.18,-285.905 1158.87,-283.231 1158.87,-279 1158.87,-274.769 1154.18,-272.095 1147.38,-270.977"/>
<polygon fill="#d5e322" stroke="#d5e322" points="1147.04,-287.042 1136.81,-283.089 1142.05,-287.312 1137.05,-287.582 1137.05,-287.582 1137.05,-287.582 1142.05,-287.312 1137.3,-292.076 1147.04,-287.042 1147.04,-287.042"/>
<polygon fill="#d5e322" stroke="#d5e322" points="1147.04,-270.958 1137.3,-265.924 1142.05,-270.688 1137.05,-270.418 1137.05,-270.418 1137.05,-270.418 1142.05,-270.688 1136.81,-274.911 1147.04,-270.958 1147.04,-270.958"/>
<text text-anchor="middle" x="1187.87" y="-275.4" font-family="Times Roman,serif" font-size="14.00">contacts</text>
</g>
<!-- GroupHasNewsPost -->
<g id="node22" class="node"><title>GroupHasNewsPost</title>
<ellipse fill="none" stroke="black" cx="2009.87" cy="-483" rx="106.98" ry="18.3848"/>
<text text-anchor="middle" x="2009.87" y="-479.4" font-family="Times Roman,serif" font-size="14.00">GroupHasNewsPost</text>
</g>
<!-- Conversation -->
<g id="node23" class="node"><title>Conversation</title>
<ellipse fill="none" stroke="black" cx="1820.87" cy="-371" rx="75.8684" ry="18.3848"/>
<text text-anchor="middle" x="1820.87" y="-367.4" font-family="Times Roman,serif" font-size="14.00">Conversation</text>
</g>
<!-- Conversation&#45;&gt;Subscription -->
<g id="edge116" class="edge"><title>Conversation&#45;&gt;Subscription</title>
<path fill="none" stroke="#efa297" d="M1826.23,-344.329C1833.11,-310.121 1845,-251.021 1852.08,-215.811"/>
<ellipse fill="none" stroke="#efa297" cx="1825.41" cy="-348.423" rx="4.00001" ry="4.00001"/>
<polygon fill="#efa297" stroke="#efa297" points="1852.14,-215.509 1858.52,-206.592 1853.12,-210.607 1854.11,-205.705 1854.11,-205.705 1854.11,-205.705 1853.12,-210.607 1849.7,-204.818 1852.14,-215.509 1852.14,-215.509"/>
</g>
<!-- Conversation&#45;&gt;Message -->
<g id="edge114" class="edge"><title>Conversation&#45;&gt;Message</title>
<path fill="none" stroke="#fb2adb" d="M1861.91,-350.592C1893,-335.127 1935.49,-314 1966.24,-298.709"/>
<ellipse fill="none" stroke="#fb2adb" cx="1857.95" cy="-352.558" rx="4.00002" ry="4.00002"/>
<polygon fill="#fb2adb" stroke="#fb2adb" points="1966.42,-298.616 1977.38,-298.193 1970.9,-296.39 1975.38,-294.163 1975.38,-294.163 1975.38,-294.163 1970.9,-296.39 1973.37,-290.134 1966.42,-298.616 1966.42,-298.616"/>
</g>
<!-- Conversation&#45;&gt;User -->
<g id="edge118" class="edge"><title>Conversation&#45;&gt;User</title>
<path fill="none" stroke="#6da6bd" d="M1743.35,-361.011C1593.34,-341.682 1267.81,-299.737 1150.29,-284.595"/>
<polygon fill="#6da6bd" stroke="#6da6bd" points="1743.78,-361.067 1753.12,-366.808 1748.74,-361.706 1753.7,-362.345 1753.7,-362.345 1753.7,-362.345 1748.74,-361.706 1754.27,-357.882 1743.78,-361.067 1743.78,-361.067"/>
<polygon fill="#6da6bd" stroke="#6da6bd" points="1150.14,-284.576 1140.8,-278.835 1145.18,-283.937 1140.23,-283.298 1140.23,-283.298 1140.23,-283.298 1145.18,-283.937 1139.65,-287.761 1150.14,-284.576 1150.14,-284.576"/>
<text text-anchor="middle" x="1568.87" y="-321.4" font-family="Times Roman,serif" font-size="14.00">participants</text>
</g>
<!-- ActiveRecord::Base -->
<g id="node24" class="node"><title>ActiveRecord::Base</title>
<ellipse fill="none" stroke="black" cx="1033.87" cy="-587" rx="104.151" ry="18.3848"/>
<text text-anchor="middle" x="1033.87" y="-583.4" font-family="Times Roman,serif" font-size="14.00">ActiveRecord::Base</text>
</g>
<!-- ActiveRecord::Base&#45;&gt;DocumentHasType -->
<g id="edge2" class="edge"><title>ActiveRecord::Base&#45;&gt;DocumentHasType</title>
<path fill="none" stroke="black" d="M999.713,-569.421C977.782,-558.992 948.355,-546.562 920.869,-540 756.638,-500.791 702.425,-557.235 542.869,-502 370.908,-442.471 279.015,-455.501 187.869,-298 166.777,-261.553 213.099,-225.28 247.648,-204.557"/>
</g>
<!-- ActiveRecord::Base&#45;&gt;EventsHasGuest -->
<g id="edge4" class="edge"><title>ActiveRecord::Base&#45;&gt;EventsHasGuest</title>
<path fill="none" stroke="black" d="M1000.8,-569.443C978.81,-558.737 948.919,-545.994 920.869,-540 775.432,-508.921 397.921,-550.047 251.869,-522 228.183,-517.451 202.787,-508.271 182.793,-499.959"/>
</g>
<!-- ActiveRecord::Base&#45;&gt;Checklist -->
<g id="edge6" class="edge"><title>ActiveRecord::Base&#45;&gt;Checklist</title>
<path fill="none" stroke="black" d="M1000.8,-569.439C978.811,-558.731 948.921,-545.988 920.869,-540 873.23,-529.831 77.5093,-538.159 44.8688,-502 -61.3361,-384.345 38.5324,-256.73 169.869,-168 225.555,-130.379 420.646,-117.213 517.891,-112.918"/>
</g>
<!-- ActiveRecord::Base&#45;&gt;UserHasAccess -->
<g id="edge8" class="edge"><title>ActiveRecord::Base&#45;&gt;UserHasAccess</title>
<path fill="none" stroke="black" d="M999.153,-569.448C977.251,-559.166 948.057,-546.886 920.869,-540 794.429,-507.978 749.82,-553.226 629.869,-502 552.697,-469.044 519.711,-462.738 477.869,-390 441.027,-325.954 430.523,-271.794 486.869,-224 500.346,-212.568 517.483,-204.633 534.235,-199.139"/>
</g>
<!-- ActiveRecord::Base&#45;&gt;EventHasGuest -->
<g id="edge10" class="edge"><title>ActiveRecord::Base&#45;&gt;EventHasGuest</title>
<path fill="none" stroke="black" d="M1133.37,-581.543C1307.85,-570.906 1653.82,-544.637 1687.87,-502 1734.29,-443.87 1713,-199.052 1705.87,-129.499"/>
</g>
<!-- ActiveRecord::Base&#45;&gt;NewsPost -->
<g id="edge18" class="edge"><title>ActiveRecord::Base&#45;&gt;NewsPost</title>
<path fill="none" stroke="black" d="M997.115,-569.624C975.329,-559.855 946.96,-548.045 920.869,-540 883.136,-528.366 870.996,-535.441 833.869,-522 817.791,-516.18 800.887,-507.343 787.398,-499.552"/>
</g>
<!-- ActiveRecord::Base&#45;&gt;Subscription -->
<g id="edge20" class="edge"><title>ActiveRecord::Base&#45;&gt;Subscription</title>
<path fill="none" stroke="black" d="M1135.02,-582.663C1303.71,-574.615 1634.98,-555.108 1746.87,-522 1834.94,-495.94 1869.09,-474.16 1905.87,-390 1934.08,-325.456 1891.71,-241.808 1869.73,-205.343"/>
</g>
<!-- ActiveRecord::Base&#45;&gt;Group -->
<g id="edge26" class="edge"><title>ActiveRecord::Base&#45;&gt;Group</title>
<path fill="none" stroke="black" d="M995.329,-569.762C940.849,-544.798 847.869,-499.741 847.869,-483 847.869,-483 847.869,-483 847.869,-325 847.869,-281.993 856.571,-232.075 861.874,-205.649"/>
</g>
<!-- ActiveRecord::Base&#45;&gt;Document -->
<g id="edge44" class="edge"><title>ActiveRecord::Base&#45;&gt;Document</title>
<path fill="none" stroke="black" d="M997.987,-569.592C976.142,-559.625 947.417,-547.624 920.869,-540 822.129,-511.644 787.095,-542.927 692.869,-502 635.21,-476.956 585.32,-419.15 562.348,-389.41"/>
</g>
<!-- ActiveRecord::Base&#45;&gt;Task -->
<g id="edge54" class="edge"><title>ActiveRecord::Base&#45;&gt;Task</title>
<path fill="none" stroke="black" d="M1078.91,-570.189C1123.7,-553.355 1194.27,-526.499 1254.87,-502 1313.95,-478.114 1331.41,-477.389 1386.87,-446 1402.38,-437.222 1557.94,-319.478 1562.87,-316 1574.65,-307.68 1580.73,-309.157 1589.87,-298 1606.92,-277.185 1607.66,-268.397 1612.87,-242 1614.42,-234.151 1618.29,-229.879 1612.87,-224 1612.41,-223.506 1289.82,-197.923 1184.62,-189.592"/>
</g>
<!-- ActiveRecord::Base&#45;&gt;Tag -->
<g id="edge58" class="edge"><title>ActiveRecord::Base&#45;&gt;Tag</title>
<path fill="none" stroke="black" d="M1068.59,-569.42C1133.84,-536.38 1273.09,-465.873 1327.46,-438.344"/>
</g>
<!-- ActiveRecord::Base&#45;&gt;FileInfo -->
<g id="edge60" class="edge"><title>ActiveRecord::Base&#45;&gt;FileInfo</title>
<path fill="none" stroke="black" d="M1031.71,-568.292C1028.55,-543.856 1021.72,-499.955 1009.87,-464 988.829,-400.157 950.89,-329.746 932.473,-297.264"/>
</g>
<!-- ActiveRecord::Base&#45;&gt;Event -->
<g id="edge72" class="edge"><title>ActiveRecord::Base&#45;&gt;Event</title>
<path fill="none" stroke="black" d="M1132.53,-581.101C1313.22,-568.966 1678.87,-537.657 1678.87,-483 1678.87,-483 1678.87,-483 1678.87,-279 1678.87,-245.964 1657.64,-240.232 1628.87,-224 1603.88,-209.902 1527.21,-198.004 1479.85,-191.742"/>
</g>
<!-- ActiveRecord::Base&#45;&gt;StudentInfo -->
<g id="edge74" class="edge"><title>ActiveRecord::Base&#45;&gt;StudentInfo</title>
<path fill="none" stroke="black" d="M1000.3,-569.235C978.358,-558.591 948.702,-545.994 920.869,-540 790.9,-512.009 451.253,-556.541 322.869,-522 304.818,-517.143 299.242,-515.061 285.869,-502 212.625,-430.464 207.143,-396.4 178.869,-298 161.66,-238.111 157.327,-163.803 156.236,-129.699"/>
</g>
<!-- ActiveRecord::Base&#45;&gt;NewsPostHasDoc -->
<g id="edge76" class="edge"><title>ActiveRecord::Base&#45;&gt;NewsPostHasDoc</title>
<path fill="none" stroke="black" d="M1123.82,-577.601C1207.74,-567.7 1335.99,-549.66 1444.87,-522 1467.94,-516.138 1493.01,-507.441 1513.38,-499.747"/>
</g>
<!-- ActiveRecord::Base&#45;&gt;DocumentType -->
<g id="edge80" class="edge"><title>ActiveRecord::Base&#45;&gt;DocumentType</title>
<path fill="none" stroke="black" d="M1000.3,-569.238C978.357,-558.594 948.701,-545.998 920.869,-540 888.649,-533.057 352.97,-543.36 327.869,-522 260.947,-465.053 270.951,-344.023 277.685,-297.632"/>
</g>
<!-- ActiveRecord::Base&#45;&gt;Comment -->
<g id="edge84" class="edge"><title>ActiveRecord::Base&#45;&gt;Comment</title>
<path fill="none" stroke="black" d="M1022.67,-568.574C1011.46,-548.341 995.869,-514.526 995.869,-483 995.869,-483 995.869,-483 995.869,-325 995.869,-279.682 965.81,-266.377 981.869,-224 997.186,-183.58 1034.3,-148.321 1058.75,-128.362"/>
</g>
<!-- ActiveRecord::Base&#45;&gt;Message -->
<g id="edge88" class="edge"><title>ActiveRecord::Base&#45;&gt;Message</title>
<path fill="none" stroke="black" d="M1135.41,-582.823C1400.03,-571.446 2092.72,-538.318 2125.87,-502 2185.59,-436.572 2076.95,-335.984 2027.99,-296.121"/>
</g>
<!-- ActiveRecord::Base&#45;&gt;User -->
<g id="edge110" class="edge"><title>ActiveRecord::Base&#45;&gt;User</title>
<path fill="none" stroke="black" d="M1038.33,-568.197C1051.39,-513.08 1089.48,-352.358 1102.47,-297.557"/>
</g>
<!-- ActiveRecord::Base&#45;&gt;GroupHasNewsPost -->
<g id="edge112" class="edge"><title>ActiveRecord::Base&#45;&gt;GroupHasNewsPost</title>
<path fill="none" stroke="black" d="M1134.72,-582.322C1328.69,-572.831 1747.08,-549.833 1888.87,-522 1914.97,-516.877 1943.3,-507.936 1965.99,-499.906"/>
</g>
<!-- ActiveRecord::Base&#45;&gt;Conversation -->
<g id="edge120" class="edge"><title>ActiveRecord::Base&#45;&gt;Conversation</title>
<path fill="none" stroke="black" d="M1134.94,-582.616C1316.05,-574.024 1681.67,-553.061 1730.87,-522 1780.03,-490.963 1805.86,-422.502 1815.86,-389.501"/>
</g>
<!-- Object -->
<g id="node56" class="node"><title>Object</title>
<ellipse fill="none" stroke="black" cx="2202.87" cy="-587" rx="43.1335" ry="18.3848"/>
<text text-anchor="middle" x="2202.87" y="-583.4" font-family="Times Roman,serif" font-size="14.00">Object</text>
</g>
<!-- Object&#45;&gt;Ability -->
<g id="edge62" class="edge"><title>Object&#45;&gt;Ability</title>
<path fill="none" stroke="black" d="M2202.87,-568.407C2202.87,-549.36 2202.87,-519.943 2202.87,-501.084"/>
</g>
</g>
</svg>
